<?xml version="1.0" standalone="no"?>
<!DOCTYPE svg PUBLIC "-//W3C//DTD SVG 20010904//EN"
 "http://www.w3.org/TR/2001/REC-SVG-20010904/DTD/svg10.dtd">
<svg version="1.0" xmlns="http://www.w3.org/2000/svg"
 width="994.000000pt" height="994.000000pt" viewBox="0 0 994.000000 994.000000"
 preserveAspectRatio="xMidYMid meet">
<metadata>
Created by potrace 1.14, written by Peter Selinger 2001-2017
</metadata>
<g transform="translate(0.000000,994.000000) scale(0.100000,-0.100000)"
fill="#000000" stroke="none">
<path d="M2197 6615 c-1 -2 -38 -5 -82 -9 -176 -13 -404 -67 -560 -131 -125
-52 -327 -167 -373 -212 -7 -7 -16 -13 -20 -13 -9 -1 -71 -55 -160 -143 -159
-155 -311 -394 -397 -623 -26 -70 -62 -182 -69 -219 -2 -11 -9 -40 -14 -65
-11 -46 -20 -102 -27 -155 -2 -16 -7 -55 -11 -85 -17 -139 -5 -368 32 -565 26
-145 91 -331 166 -478 234 -458 609 -768 1124 -930 84 -27 223 -62 284 -71 19
-3 49 -8 65 -11 191 -32 589 -27 785 11 14 3 39 7 57 9 63 9 285 65 381 96
120 39 358 133 432 171 30 15 57 28 61 28 18 0 445 242 459 260 3 4 16 13 30
20 45 24 272 191 393 289 66 53 125 101 133 107 8 6 14 14 14 18 0 4 -28 -13
-62 -38 -269 -196 -704 -384 -1091 -471 -114 -26 -132 -30 -201 -40 -21 -4
-47 -8 -58 -10 -11 -3 -46 -7 -77 -11 -31 -3 -65 -8 -75 -10 -43 -8 -249 -18
-366 -18 -208 1 -335 12 -534 49 -584 108 -1046 400 -1259 797 -40 75 -91 196
-102 244 -2 10 -9 37 -15 59 -20 83 -25 134 -25 280 0 148 7 224 26 287 6 18
12 44 15 57 11 52 77 201 128 286 125 208 304 371 533 483 103 50 291 116 393
137 8 2 35 8 60 13 25 6 65 13 90 17 25 3 59 9 75 11 64 12 297 10 398 -2 397
-48 784 -231 1182 -558 28 -22 52 -43 55 -46 3 -3 23 -20 45 -39 47 -40 276
-263 356 -347 150 -159 345 -388 615 -724 203 -253 214 -266 229 -284 6 -6 35
-41 65 -76 248 -295 522 -576 705 -724 232 -186 494 -340 710 -416 106 -37
303 -86 395 -97 129 -16 490 -8 591 13 13 2 44 7 69 10 66 8 263 58 350 89 97
35 261 115 324 157 305 206 520 482 710 912 52 118 106 251 106 264 0 3 -16
-17 -37 -44 -227 -304 -568 -587 -907 -754 -121 -59 -311 -132 -379 -146 -11
-2 -34 -8 -51 -13 -32 -11 -169 -35 -266 -47 -72 -9 -264 -10 -365 -1 -183 16
-411 80 -605 170 -59 27 -210 114 -270 155 -272 187 -626 545 -985 997 -44 55
-82 102 -85 105 -4 3 -19 23 -36 45 -16 22 -36 49 -46 60 -9 11 -106 133 -215
270 -397 499 -632 747 -968 1024 -85 70 -297 211 -408 273 -345 189 -691 299
-1081 344 -55 6 -353 13 -359 9z"/>
<path d="M7157 6614 c-1 -1 -45 -4 -97 -8 -86 -6 -170 -17 -240 -31 -14 -3
-41 -8 -60 -11 -19 -3 -62 -13 -95 -21 -33 -8 -71 -17 -84 -20 -14 -2 -28 -6
-33 -9 -4 -3 -16 -7 -25 -9 -10 -2 -58 -17 -108 -33 -391 -128 -813 -358
-1185 -646 -63 -49 -117 -92 -120 -95 -3 -4 -17 -16 -32 -27 -46 -36 -158
-136 -232 -208 -39 -38 -58 -58 -41 -45 16 13 32 26 35 29 3 3 32 25 65 50
404 301 949 519 1488 596 15 2 42 6 60 9 91 13 231 20 407 20 223 0 330 -8
475 -35 28 -5 66 -12 85 -15 19 -3 69 -15 110 -26 41 -11 82 -22 90 -24 52
-11 213 -75 315 -125 308 -150 527 -356 660 -621 42 -83 91 -217 101 -276 2
-15 7 -34 10 -42 8 -25 18 -143 18 -231 0 -436 -221 -823 -605 -1058 -175
-107 -479 -212 -684 -237 -16 -2 -50 -7 -75 -10 -52 -8 -311 -9 -355 -1 -16 3
-50 7 -75 11 -25 3 -56 8 -70 10 -14 3 -34 7 -45 9 -65 12 -290 82 -310 96 -5
3 -32 15 -60 25 -27 10 -74 31 -103 47 -64 34 -72 35 -35 5 98 -81 298 -195
448 -255 91 -37 263 -88 326 -97 24 -4 46 -8 50 -10 15 -10 175 -20 304 -20
128 0 230 7 295 20 14 3 59 12 100 20 253 49 528 169 740 323 97 70 280 256
351 357 150 212 246 457 283 720 13 96 14 359 2 415 -3 13 -8 42 -11 65 -4 22
-13 65 -21 95 -8 30 -16 62 -18 70 -14 56 -55 160 -98 245 -180 362 -490 655
-867 820 -147 65 -359 131 -476 149 -22 4 -67 11 -100 16 -102 16 -185 22
-323 24 -73 1 -133 2 -135 0z"/>
<path d="M2348 5954 c-2 -2 -29 -6 -59 -10 -29 -3 -94 -15 -144 -26 -49 -11
-102 -22 -118 -25 -15 -3 -30 -9 -33 -15 -3 -5 5 -6 18 -3 95 22 450 29 543
10 17 -3 53 -10 80 -15 388 -73 721 -255 1110 -609 126 -115 438 -435 555
-571 12 -14 45 -52 74 -85 29 -33 132 -151 228 -262 437 -504 696 -769 942
-965 11 -9 50 -40 86 -69 90 -71 296 -206 415 -273 97 -54 295 -149 295 -142
0 2 -33 23 -72 47 -239 144 -551 423 -828 738 -36 41 -81 93 -101 115 -20 23
-45 52 -56 66 -12 14 -38 46 -59 71 -22 26 -46 55 -54 65 -258 322 -575 708
-615 750 -5 6 -39 44 -75 85 -108 124 -408 421 -520 514 -377 317 -722 503
-1070 574 -52 11 -108 23 -125 26 -33 7 -411 16 -417 9z"/>
</g>
</svg>
